{"asset":{"generator":"3D Builder","version":"2.0"},"scene":0,"scenes":[{"nodes":[0]}],"nodes":[{"mesh":0,"matrix":[39.370079040527344,0,0,0,0,-4.6932791519793682E-6,-39.370075225830078,0,0,39.370075225830078,-4.6932791519793682E-6,0,-0.28603944182395935,0.37370303273200989,-0.67698746919631958,1]}],"meshes":[{"primitives":[{"attributes":{"POSITION":0},"mode":4,"indices":3,"material":0},{"attributes":{"POSITION":1,"TEXCOORD_0":2},"mode":4,"indices":4,"material":1}]}],"materials":[{"name":"Metallic","pbrMetallicRoughness":{"baseColorFactor":[0.91309869289398193,0.87136721611022949,0.87136721611022949,1],"metallicFactor":1,"roughnessFactor":0.49000000953674316},"alphaMode":"OPAQUE"},{"pbrMetallicRoughness":{"baseColorFactor":[1,1,1,1],"metallicFactor":0,"roughnessFactor":1,"baseColorTexture":{"index":0,"texCoord":0}},"alphaMode":"OPAQUE"}],"textures":[{"source":0,"sampler":0}],"images":[{"uri":"newsprnt.jpg"}],"samplers":[{"magFilter":9729,"wrapS":10497,"wrapT":10497}],"accessors":[{"bufferView":0,"byteOffset":0,"count":2160,"componentType":5126,"type":"VEC3","min":[-0.0063248262740671635,-0.025727465748786926,-0.0030947255436331034],"max":[0.0066726873628795147,-3.0279163620861027E-9,0.0042839092202484608]},{"bufferView":0,"byteOffset":25920,"count":4,"componentType":5126,"type":"VEC3","min":[-0.0048840884119272232,-0.024883601814508438,0.0027608433738350868],"max":[0.0052319490350782871,-0.024883601814508438,0.004057509358972311]},{"bufferView":1,"byteOffset":0,"count":4,"componentType":5126,"type":"VEC2"},{"bufferView":2,"byteOffset":0,"count":13494,"componentType":5125,"type":"SCALAR"},{"bufferView":2,"byteOffset":53976,"count":6,"componentType":5125,"type":"SCALAR"}],"bufferViews":[{"buffer":0,"byteOffset":0,"byteLength":25968,"byteStride":12,"target":34962},{"buffer":0,"byteOffset":25968,"byteLength":32,"byteStride":8,"target":34962},{"buffer":0,"byteOffset":26000,"byteLength":54000,"target":34963}],"buffers":[{"byteLength":80000,"uri":"PARTHENON.bin"}]}